<svg width="480" height="480" viewBox="0 0 480 480" fill="none" xmlns="http://www.w3.org/2000/svg">
<path d="M63.6166 333L41.6361 333.222C21.0646 333.222 8.24268 330.039 3.17026 323.673C1.05675 320.861 0 317.604 0 313.903C0 310.202 1.2681 307.685 3.80431 306.352C6.48142 304.872 10.0039 303.836 14.3718 303.244C18.8807 302.503 21.9805 301.763 23.6713 301.023C29.1664 298.654 31.914 293.399 31.914 285.256V68.7438C31.914 57.9367 26.5597 51.9409 15.8513 50.7566C7.81998 50.0164 3.45206 49.0541 2.74756 47.8698C0.915853 45.205 0 42.4662 0 39.6534C0 36.6925 0.493152 34.1018 1.47945 31.8811C2.60666 29.6605 4.36791 27.958 6.76322 26.7737C9.29943 25.4413 11.6947 24.405 13.9491 23.6648C16.2036 22.7765 19.3738 22.1843 23.4599 21.8883C29.8004 21.4441 35.0138 21.2221 39.0999 21.2221H45.8631L69.9571 21C89.6831 21 101.941 24.1829 106.732 30.5488C108.846 33.3616 109.902 36.6925 109.902 40.5416C109.902 44.2427 108.493 46.7594 105.675 48.0918C102.998 49.4242 99.4757 50.3865 95.1078 50.9787C90.7399 51.4228 87.781 52.015 86.2311 52.7552C80.736 55.1239 77.9884 60.5274 77.9884 68.9659V181.774C123.64 138.546 165.981 98.2043 205.01 60.7495C207.969 57.7886 209.449 55.494 209.449 53.8655C209.449 52.237 208.462 51.0527 206.49 50.3125C204.658 49.5723 202.544 49.1281 200.149 48.9801C194.09 48.536 191.061 45.6491 191.061 40.3196C191.061 33.9537 192.47 29.8085 195.288 27.884C198.247 25.8114 200.642 24.405 202.474 23.6648C204.447 22.7765 207.335 22.1843 211.139 21.8883C216.634 21.4441 224.032 21.2221 233.331 21.2221C242.771 21.2221 250.028 21.3701 255.1 21.6662C260.173 21.8142 265.668 22.3324 271.586 23.2206C277.644 24.1089 281.73 25.7374 283.844 28.1061C286.098 30.3267 287.226 32.9174 287.226 35.8783C287.226 38.6911 286.944 40.6897 286.38 41.874C285.817 42.9103 284.83 43.7986 283.421 44.5388C282.153 45.279 280.956 45.7972 279.828 46.0933C278.137 46.6854 274.826 47.6477 269.895 48.9801L249.182 55.4199C191.413 107.087 157.597 137.214 147.734 145.8L258.482 288.365C266.513 297.396 277.785 302.651 292.298 304.132C293.707 304.28 294.623 304.428 295.046 304.576C295.609 304.724 296.455 304.946 297.582 305.242C298.85 305.538 299.695 305.834 300.118 306.13C300.541 306.278 301.104 306.649 301.809 307.241C302.654 307.685 303.218 308.277 303.5 309.017C304.345 310.942 304.768 313.384 304.768 316.345C304.768 319.158 303.57 321.971 301.175 324.784C298.779 327.449 295.327 329.299 290.819 330.335C283.351 332.26 274.263 333.222 263.554 333.222C235.938 333.222 222.13 330.187 222.13 324.118C167.46 247.876 132.165 197.985 116.243 174.446L77.9884 207.534V285.7C77.9884 296.804 83.3426 302.799 94.0511 303.688C96.8691 303.984 98.7712 304.206 99.7575 304.354C100.885 304.354 102.294 304.576 103.985 305.02C105.816 305.464 107.014 306.056 107.577 306.797C109.127 308.869 109.902 311.238 109.902 313.903C109.902 316.567 109.55 318.862 108.846 320.787C108.282 322.563 107.225 324.118 105.675 325.45C104.266 326.634 102.857 327.671 101.448 328.559C100.039 329.447 97.9963 330.187 95.3192 330.78C92.7829 331.224 90.599 331.668 88.7673 332.112C86.9356 332.408 84.3289 332.63 80.9473 332.778C77.7066 332.926 75.1704 333 73.3387 333C70.098 333 66.8573 333 63.6166 333Z" fill="#D3CEFF"/>
<path d="M340.986 146.36C323.125 146.36 309.143 148.832 299.041 153.775C280.593 162.735 271.37 174.553 271.37 189.229C271.37 197.107 273.493 203.364 277.738 207.998C289.012 220.511 303.799 231.093 322.1 239.744C333.08 244.842 348.966 251.407 369.755 259.44C390.692 267.473 404.82 273.266 412.14 276.819C419.461 280.372 427.586 285.161 436.517 291.186C445.594 297.211 453.061 303.467 458.917 309.955C472.972 325.558 480 343.4 480 363.483C480 377.849 476.267 390.826 468.8 402.412C461.479 413.998 451.67 423.267 439.372 430.218C414.044 444.739 385.201 452 352.845 452C309.216 452 273.566 443.967 245.895 427.901C236.671 422.494 229.131 415.543 223.275 407.046C217.419 398.55 214.491 389.513 214.491 379.935C214.491 370.203 217.272 362.556 222.836 356.994C228.399 351.433 236.305 348.653 246.554 348.653C256.949 348.653 265.001 352.437 270.711 360.007C276.567 367.576 279.495 377.463 279.495 389.667C279.495 394.456 279.056 399.631 278.178 405.192C300.432 417.242 324.223 423.267 349.551 423.267C371.951 423.267 391.058 419.714 406.87 412.607C424.878 404.42 433.882 390.208 433.882 369.971C433.882 348.807 413.824 330.115 373.708 313.894C366.974 311.268 356.579 307.406 342.524 302.308C313.828 291.804 292.233 282.535 277.738 274.502C242.162 254.728 224.373 229.934 224.373 200.12C224.373 186.062 227.96 173.549 235.134 162.581C242.308 151.613 251.898 142.962 263.903 136.628C288.207 123.961 316.61 117.627 349.112 117.627C387.324 117.627 418.216 124.347 441.788 137.787C449.987 142.576 456.648 148.832 461.772 156.556C467.043 164.126 469.678 172.776 469.678 182.509C469.678 192.087 466.457 200.042 460.015 206.376C453.72 212.555 445.887 215.645 436.517 215.645C427.147 215.645 420.266 215.181 415.874 214.254C413.97 187.066 407.968 168.992 397.866 160.032C387.763 150.917 368.804 146.36 340.986 146.36Z" fill="#958CE6"/>
</svg>
